<svg width="242" height="241" viewBox="0 0 242 241" fill="none" xmlns="http://www.w3.org/2000/svg">
<g clip-path="url(#clip0_2853_2343)">
<path d="M151.461 5.64453H184.298V38.3445H178.875V14.8695L10.2804 182.757L6.44703 178.932L175.042 11.0445H151.461V5.64453ZM38.4925 48.5445H53.555C56.2135 48.5445 58.375 50.697 58.375 53.3445C58.375 55.992 56.2135 58.1445 53.555 58.1445H30.9613V63.5445H43.3125V72.0945H48.735V63.5445H53.555C59.2034 63.5445 63.7975 58.9695 63.7975 53.3445C63.7975 47.7195 59.2034 43.1445 53.555 43.1445H38.4925C35.834 43.1445 33.6725 40.992 33.6725 38.3445C33.6725 35.697 35.834 33.5445 38.4925 33.5445H61.0863V28.1445H48.735V19.5945H43.3125V28.1445H38.4925C32.8441 28.1445 28.25 32.7195 28.25 38.3445C28.25 43.9695 32.8441 48.5445 38.4925 48.5445ZM169.235 105.845V233.345C169.235 234.837 168.022 236.045 166.524 236.045H128.868C127.369 236.045 126.156 234.837 126.156 233.345V105.845C126.156 104.352 127.369 103.145 128.868 103.145H166.524C168.022 103.145 169.235 104.352 169.235 105.845ZM163.812 168.545H131.579V230.637H163.805L163.812 168.545ZM163.812 131.045H131.579V163.137H163.805L163.812 131.045ZM163.812 108.545H131.579V125.645H163.805L163.812 108.545ZM5.65625 45.8445C5.65625 23.6745 23.7614 5.64453 46.0238 5.64453C68.2861 5.64453 86.3912 23.6745 86.3912 45.8445C86.3912 68.0145 68.2861 86.0445 46.0238 86.0445C23.7614 86.0445 5.65625 68.0145 5.65625 45.8445ZM11.0788 45.8445C11.0788 65.037 26.7588 80.6445 46.0238 80.6445C65.2887 80.6445 80.9688 65.037 80.9688 45.8445C80.9688 26.652 65.2962 11.0445 46.0238 11.0445C26.7513 11.0445 11.0788 26.652 11.0788 45.8445ZM237.016 45.8445V233.345C237.016 234.837 235.804 236.045 234.305 236.045H196.649C195.15 236.045 193.938 234.837 193.938 233.345V45.8445C193.938 44.352 195.15 43.1445 196.649 43.1445H234.305C235.804 43.1445 237.016 44.352 237.016 45.8445ZM231.594 131.045H199.36V230.645H231.586L231.594 131.045ZM231.594 78.5445H199.36V125.645H231.586L231.594 78.5445ZM231.594 48.5445H199.36V73.1445H231.586L231.594 48.5445ZM101.454 173.345V233.345C101.454 234.837 100.241 236.045 98.7425 236.045H61.0863C59.5875 236.045 58.375 234.837 58.375 233.345V173.345C58.375 171.852 59.5875 170.645 61.0863 170.645H98.7425C100.241 170.645 101.454 171.852 101.454 173.345ZM96.0312 191.045H63.7975V230.637H96.0312V191.045ZM96.0312 176.045H63.7975V185.637H96.0312V176.045Z" fill="#0059A9"/>
</g>
<defs>
<clipPath id="clip0_2853_2343">
<rect width="241" height="240" fill="white" transform="translate(0.835938 0.84375)"/>
</clipPath>
</defs>
</svg>
