<svg width="240" height="241" viewBox="0 0 240 241" fill="none" xmlns="http://www.w3.org/2000/svg">
<g clip-path="url(#clip0_3195_31)">
<path d="M142.5 220.994C116.993 220.994 93.03 209.699 76.77 190.011L80.94 186.569C96.165 205.011 118.605 215.586 142.5 215.586C186.503 215.586 222.3 179.796 222.3 135.786C222.3 91.7838 186.51 55.9862 142.5 55.9862C118.605 55.9862 96.1725 66.5687 80.94 85.0112L76.7775 81.5688C92.46 62.5788 115.305 51.4038 139.8 50.6313V40.9938H120C118.508 40.9938 117.3 39.7862 117.3 38.2937V23.2937C117.3 21.8012 118.508 20.5938 120 20.5938H165C166.493 20.5938 167.7 21.8012 167.7 23.2937V38.2937C167.7 39.7862 166.493 40.9938 165 40.9938H145.2V50.6387C190.935 52.0712 227.7 89.7212 227.7 135.794C227.7 182.774 189.48 220.994 142.5 220.994ZM122.7 35.5937H162.3V25.9937H122.7V35.5937ZM105 175.994H30V170.594H105V175.994ZM90 138.494H15V133.094H90V138.494ZM143.843 138.134L141.165 133.446L193.665 103.446L196.343 108.134L143.843 138.134ZM105 100.994H30V95.5938H105V100.994Z" fill="#0059A9"/>
</g>
<defs>
<clipPath id="clip0_3195_31">
<rect width="240" height="240" fill="white" transform="translate(0 0.789062)"/>
</clipPath>
</defs>
</svg>
