<svg width="241" height="241" viewBox="0 0 241 241" fill="none" xmlns="http://www.w3.org/2000/svg">
<g clip-path="url(#clip0_3195_56)">
<path d="M212.836 142.834L218.097 144.076C207.364 189.368 167.238 221 120.5 221C67.3069 221 23.7736 179.443 20.5386 127.19L9.82042 137.879L6 134.061L22.9254 117.19L39.8434 134.061L36.0229 137.879L25.9728 127.856C29.523 176.823 70.5043 215.611 120.5 215.611C164.716 215.611 202.68 185.686 212.836 142.834ZM120.5 26.3892C170.496 26.3892 211.477 65.1766 215.02 114.144L204.977 104.129L201.149 107.939L218.075 124.81L235 107.931L231.172 104.121L220.461 114.802C217.226 62.5569 173.701 21 120.5 21C73.7843 21 33.6586 52.6317 22.9254 97.9236L28.187 99.1662C38.3422 56.3144 76.2987 26.3892 120.5 26.3892ZM144.166 77.1003C151.409 77.1003 158.224 79.9147 163.358 85.0195C168.612 90.2665 171.426 97.2275 171.299 104.645C171.171 111.674 168.357 118.298 163.358 123.29L120.5 166.022L77.6498 123.29C72.5609 118.216 69.7387 111.464 69.7012 104.278C69.6712 97.003 72.4933 90.1692 77.6498 85.0269C82.7612 79.9296 89.5539 77.1153 96.7819 77.1003C96.7969 77.1003 96.8119 77.1003 96.8269 77.1003C104.077 77.1003 110.893 79.9072 116.012 85.0269L120.5 89.4955L124.988 85.0269C130.107 79.9147 136.923 77.1003 144.166 77.1003ZM159.53 88.8293C151.319 80.6482 137.013 80.6482 128.801 88.8293L120.5 97.1153L112.199 88.8293C108.093 84.7425 102.636 82.482 96.8344 82.482C96.8194 82.482 96.8119 82.482 96.7969 82.482C91.01 82.4895 85.5683 84.75 81.4702 88.8293C77.342 92.9386 75.0828 98.4177 75.1053 104.248C75.1353 110.004 77.3946 115.409 81.4702 119.473L120.5 158.403L159.53 119.473C163.53 115.476 165.79 110.177 165.887 104.54C166 98.6048 163.741 93.0284 159.53 88.8293Z" fill="#0059A9"/>
</g>
<defs>
<clipPath id="clip0_3195_56">
<rect width="240" height="240" fill="white" transform="translate(0.667969 0.789062)"/>
</clipPath>
</defs>
</svg>
