<svg width="241" height="241" viewBox="0 0 241 241" fill="none" xmlns="http://www.w3.org/2000/svg">
<g clip-path="url(#clip0_3195_44)">
<path d="M135.365 127.51C135.365 132.393 131.393 136.365 126.51 136.365H122.344V143.786H117.656V136.365H106.979V131.677H126.51C128.809 131.677 130.677 129.809 130.677 127.51C130.677 125.212 128.809 123.344 126.51 123.344H113.49C108.607 123.344 104.642 119.372 104.642 114.49C104.642 109.607 108.613 105.635 113.49 105.635H117.663V98.2135H122.35V105.635H133.021V110.323H113.49C111.191 110.323 109.323 112.191 109.323 114.49C109.323 116.788 111.191 118.656 113.49 118.656H126.51C131.393 118.656 135.365 122.628 135.365 127.51ZM167.122 136.365L164.186 143.454L173.952 153.22L152.22 174.952L142.454 165.186L135.365 168.122V181.938H104.635V168.122L97.5391 165.186L87.7734 174.952L66.0417 153.22L75.8073 143.454L72.8711 136.365H59.0625V105.635H72.8711L75.8073 98.5391L66.0417 88.7734L87.7734 67.0417L97.5391 76.8073L104.635 73.8711V60.0625H135.365V73.8711L142.454 76.8073L152.22 67.0417L173.952 88.7734L164.186 98.5391L167.122 105.635H180.938V136.365H167.122ZM158.659 144.561L163.997 131.677H176.25V110.323H163.997L158.659 97.4388L167.331 88.7734L152.227 73.6758L143.568 82.3411L130.677 77.0091V64.75H109.323V77.0091L96.4388 82.3411L87.7734 73.6758L72.6758 88.7734L81.3411 97.4388L76.0091 110.323H63.75V131.677H76.0091L81.3411 144.561L72.6758 153.22L87.7734 168.324L96.4388 159.652L109.323 164.991V177.243H130.677V164.991L143.561 159.652L152.22 168.324L167.324 153.22L158.659 144.561ZM120 25.6875C148.659 25.6875 175.111 38.1549 193.288 60.0625H172.083V64.75H200.469V36.3646H195.781V55.7526C176.751 33.5781 149.492 21 120 21C64.8568 21 20 65.8568 20 121H24.6875C24.6875 68.4414 67.4414 25.6875 120 25.6875ZM215.312 121C215.312 173.552 172.559 216.312 120 216.312C91.3411 216.312 64.8893 203.845 46.7122 181.944H67.9167V177.25H39.5312V205.635H44.2188V186.247C63.2487 208.422 90.5078 221 120 221C175.143 221 220 176.137 220 121H215.312Z" fill="#0059A9"/>
</g>
<defs>
<clipPath id="clip0_3195_44">
<rect width="240" height="240" fill="white" transform="translate(0.332031 0.789062)"/>
</clipPath>
</defs>
</svg>
