<svg width="122" height="123" viewBox="0 0 122 123" fill="none" xmlns="http://www.w3.org/2000/svg">
<g clip-path="url(#clip0_2853_2370)">
<path d="M117.217 119.673L81.8863 84.3309C73.4492 92.3029 62.0651 97.1981 49.5639 97.1981C23.5817 97.1981 2.44141 76.0578 2.44141 50.0756C2.44141 24.0934 23.5817 2.95312 49.5639 2.95312C75.5461 2.95312 96.6864 24.0934 96.6864 50.0756C96.6864 62.573 91.7988 73.9495 83.8307 82.3904L119.161 117.732L117.217 119.673ZM49.5639 5.69813C25.0953 5.69813 5.18641 25.607 5.18641 50.0756C5.18641 74.5443 25.0953 94.4531 49.5639 94.4531C74.0325 94.4531 93.9414 74.5443 93.9414 50.0756C93.9414 25.607 74.0325 5.69813 49.5639 5.69813ZM76.2514 74.3231C73.392 74.3231 71.0664 71.9975 71.0664 69.1381C71.0664 66.2788 73.392 63.9531 76.2514 63.9531C79.1108 63.9531 81.4364 66.2788 81.4364 69.1381C81.4364 71.9975 79.1108 74.3231 76.2514 74.3231ZM76.2514 66.6981C74.9056 66.6981 73.8114 67.7923 73.8114 69.1381C73.8114 70.4839 74.9056 71.5781 76.2514 71.5781C77.5972 71.5781 78.6914 70.4839 78.6914 69.1381C78.6914 67.7923 77.5972 66.6981 76.2514 66.6981ZM45.7514 74.3231C42.892 74.3231 40.5664 71.9975 40.5664 69.1381C40.5664 66.2788 42.892 63.9531 45.7514 63.9531C48.6108 63.9531 50.9364 66.2788 50.9364 69.1381C50.9364 71.9975 48.6108 74.3231 45.7514 74.3231ZM45.7514 66.6981C44.4056 66.6981 43.3114 67.7923 43.3114 69.1381C43.3114 70.4839 44.4056 71.5781 45.7514 71.5781C47.0972 71.5781 48.1914 70.4839 48.1914 69.1381C48.1914 67.7923 47.0972 66.6981 45.7514 66.6981ZM26.6889 74.3231C23.8295 74.3231 21.5039 71.9975 21.5039 69.1381C21.5039 66.2788 23.8295 63.9531 26.6889 63.9531C29.5483 63.9531 31.8739 66.2788 31.8739 69.1381C31.8739 71.9975 29.5483 74.3231 26.6889 74.3231ZM26.6889 66.6981C25.3431 66.6981 24.2489 67.7923 24.2489 69.1381C24.2489 70.4839 25.3431 71.5781 26.6889 71.5781C28.0347 71.5781 29.1289 70.4839 29.1289 69.1381C29.1289 67.7923 28.0347 66.6981 26.6889 66.6981ZM62.3739 72.9506H59.6289V65.3256H62.3739V72.9506ZM57.1889 55.2606C54.3295 55.2606 52.0039 52.935 52.0039 50.0756C52.0039 47.2162 54.3295 44.8906 57.1889 44.8906C60.0483 44.8906 62.3739 47.2162 62.3739 50.0756C62.3739 52.935 60.0483 55.2606 57.1889 55.2606ZM57.1889 47.6356C55.8431 47.6356 54.7489 48.7298 54.7489 50.0756C54.7489 51.4214 55.8431 52.5156 57.1889 52.5156C58.5347 52.5156 59.6289 51.4214 59.6289 50.0756C59.6289 48.7298 58.5347 47.6356 57.1889 47.6356ZM26.6889 55.2606C23.8295 55.2606 21.5039 52.935 21.5039 50.0756C21.5039 47.2162 23.8295 44.8906 26.6889 44.8906C29.5483 44.8906 31.8739 47.2162 31.8739 50.0756C31.8739 52.935 29.5483 55.2606 26.6889 55.2606ZM26.6889 47.6356C25.3431 47.6356 24.2489 48.7298 24.2489 50.0756C24.2489 51.4214 25.3431 52.5156 26.6889 52.5156C28.0347 52.5156 29.1289 51.4214 29.1289 50.0756C29.1289 48.7298 28.0347 47.6356 26.6889 47.6356ZM77.6239 53.8881H74.8789V46.2631H77.6277L77.6239 53.8881ZM43.3114 53.8881H40.5664V46.2631H43.3114V53.8881ZM76.2514 36.1981C73.392 36.1981 71.0664 33.8725 71.0664 31.0131C71.0664 28.1538 73.392 25.8281 76.2514 25.8281C79.1108 25.8281 81.4364 28.1538 81.4364 31.0131C81.4364 33.8725 79.1108 36.1981 76.2514 36.1981ZM76.2514 28.5731C74.9056 28.5731 73.8114 29.6673 73.8114 31.0131C73.8114 32.3589 74.9056 33.4531 76.2514 33.4531C77.5972 33.4531 78.6914 32.3589 78.6914 31.0131C78.6914 29.6673 77.5972 28.5731 76.2514 28.5731ZM45.7514 36.1981C42.892 36.1981 40.5664 33.8725 40.5664 31.0131C40.5664 28.1538 42.892 25.8281 45.7514 25.8281C48.6108 25.8281 50.9364 28.1538 50.9364 31.0131C50.9364 33.8725 48.6108 36.1981 45.7514 36.1981ZM45.7514 28.5731C44.4056 28.5731 43.3114 29.6673 43.3114 31.0131C43.3114 32.3589 44.4056 33.4531 45.7514 33.4531C47.0972 33.4531 48.1914 32.3589 48.1914 31.0131C48.1914 29.6673 47.0972 28.5731 45.7514 28.5731ZM62.3739 34.8256H59.6289V27.2006H62.3739V34.8256ZM28.0614 34.8256H25.3164V27.2006H28.0614V34.8256Z" fill="#0059A9"/>
</g>
<defs>
<clipPath id="clip0_2853_2370">
<rect width="122" height="122" fill="white" transform="translate(0 0.511719)"/>
</clipPath>
</defs>
</svg>
