<svg width="120" height="121" viewBox="0 0 120 121" fill="none" xmlns="http://www.w3.org/2000/svg">
<g clip-path="url(#clip0_2853_2379)">
<path d="M59.9984 118.11C28.2359 118.11 2.39844 92.2727 2.39844 60.5102C2.39844 41.3739 11.7772 24.3902 26.1809 13.9089C28.0034 12.4539 29.9872 11.1827 32.0909 10.1327C40.3634 5.53141 49.8809 2.91016 59.9984 2.91016C91.7609 2.91016 117.598 28.7477 117.598 60.5102C117.598 92.2727 91.7609 118.11 59.9984 118.11ZM15.9134 27.8252C9.12219 36.9639 5.09844 48.2777 5.09844 60.5102C5.09844 90.7802 29.7247 115.41 59.9984 115.41C69.1334 115.41 77.7509 113.168 85.3372 109.208L62.3009 69.3077C57.6884 71.7339 52.4384 73.1139 46.8734 73.1139C28.5547 73.1139 13.6484 58.2077 13.6484 39.8889C13.6484 35.6327 14.4509 31.5677 15.9134 27.8252ZM64.6372 67.9501L87.6959 107.891C103.96 98.3552 114.898 80.6852 114.898 60.5102C114.898 30.2364 90.2722 5.61016 59.9984 5.61016C56.2184 5.61016 52.5284 5.99641 48.9622 6.72391C62.6197 7.57516 74.0684 16.7177 78.3247 29.1602H89.9984V31.8602H79.1197C79.7609 34.4327 80.1022 37.1177 80.1022 39.8852C80.1022 44.0289 79.3372 48.0002 77.9459 51.6602H89.9984V54.3601H76.7797C74.0647 59.9401 69.8384 64.6502 64.6372 67.9501ZM27.8159 16.0577C20.8297 21.6564 16.3484 30.2589 16.3484 39.8852C16.3484 56.7151 30.0434 70.4101 46.8734 70.4101C58.4722 70.4101 68.5784 63.9114 73.7422 54.3601H37.4984V51.6602H75.0359C76.1609 48.9827 76.9147 46.1101 77.2297 43.1101H29.9984V40.4102H77.3947C77.3984 40.2339 77.3984 40.0614 77.3984 39.8852C77.3984 37.1101 77.0272 34.4177 76.3297 31.8602H37.4984V29.1602H75.4522C71.1022 17.6027 59.9309 9.36016 46.8734 9.36016C42.0209 9.36016 37.4234 10.5002 33.3472 12.5252C31.4309 13.5939 29.5822 14.7752 27.8159 16.0577Z" fill="#0059A9"/>
</g>
<defs>
<clipPath id="clip0_2853_2379">
<rect width="120" height="120" fill="white" transform="translate(0 0.511719)"/>
</clipPath>
</defs>
</svg>
