<svg width="116" height="117" viewBox="0 0 116 117" fill="none" xmlns="http://www.w3.org/2000/svg">
<g clip-path="url(#clip0_2853_2388)">
<path d="M58.0003 114.192C55.2816 114.192 53.0703 111.981 53.0703 109.262C53.0703 106.996 54.6073 105.082 56.6953 104.506V88.788C53.1356 88.6394 49.6773 87.8745 46.3967 86.5115L47.3972 84.1045C50.3588 85.3334 53.4799 86.0258 56.6917 86.1744V63.2644C56.3002 63.1557 55.9196 62.9998 55.5571 62.7932L26.0314 92.3224C26.4556 93.0546 26.6803 93.892 26.6803 94.762C26.6803 96.0779 26.1692 97.3176 25.2376 98.2493C23.3163 100.167 20.1879 100.167 18.2667 98.2493C16.3454 96.328 16.3454 93.196 18.2667 91.2748C19.8109 89.7269 22.3412 89.4224 24.1936 90.4736L35.6703 78.9969C33.2633 76.3833 31.3566 73.3963 29.9936 70.112L32.4042 69.1152C33.6367 72.0804 35.3513 74.7774 37.5154 77.1518L53.7156 60.9517C53.5089 60.5892 53.3531 60.2085 53.2479 59.817H12.0063C11.4336 61.905 9.51956 63.442 7.25031 63.442C4.53156 63.442 2.32031 61.2308 2.32031 58.512C2.32031 55.7933 4.53156 53.582 7.25031 53.582C9.51594 53.582 11.4299 55.119 12.0063 57.207H27.7243C27.8766 53.6509 28.6378 50.189 29.9972 46.912L32.4078 47.9089C31.1789 50.8705 30.4866 53.9953 30.3379 57.207H53.2516C53.3567 56.8155 53.5126 56.4349 53.7192 56.0724L24.1899 26.5468C22.3412 27.6089 19.8109 27.2972 18.2667 25.7457C16.3454 23.8244 16.3454 20.696 18.2667 18.7748C20.1879 16.8535 23.3163 16.8535 25.2376 18.7748C26.1692 19.7064 26.6803 20.9462 26.6803 22.262C26.6803 23.132 26.4556 23.9658 26.0351 24.7017L37.5154 36.1784C40.1327 33.775 43.1124 31.8683 46.4003 30.5053L47.4008 32.9159C44.4319 34.1484 41.7349 35.863 39.3642 38.0272L55.5643 54.2273C55.9268 54.0207 56.3074 53.8648 56.6989 53.7597V12.518C54.6109 11.9453 53.0739 10.0313 53.0739 7.76203C53.0739 5.04328 55.2852 2.83203 58.0039 2.83203C60.7227 2.83203 62.9303 5.04328 62.9303 7.76203C62.9303 10.0277 61.3897 11.9417 59.3053 12.518V28.236C62.8651 28.3883 66.3197 29.1495 69.6003 30.5089L68.6034 32.9195C65.6418 31.6907 62.5171 30.9983 59.3053 30.8497V53.7633C59.6968 53.8684 60.0774 54.0243 60.4399 54.2309L89.9656 24.7053C89.5451 23.9658 89.3203 23.132 89.3203 22.262C89.3203 20.9462 89.8351 19.7064 90.7631 18.7784C92.6879 16.8572 95.8127 16.8572 97.7376 18.7784C99.6588 20.6997 99.6588 23.828 97.7376 25.7493C96.1897 27.2972 93.6486 27.6053 91.8107 26.5504L80.3339 38.0308C82.7373 40.648 84.6404 43.6314 86.0034 46.9156L83.5892 47.9125C82.3603 44.9473 80.6457 42.2503 78.4852 39.8759L62.2814 56.076C62.4881 56.4385 62.6439 56.8191 62.7527 57.2107H103.994C104.567 55.1227 106.485 53.5857 108.75 53.5857C111.469 53.5857 113.68 55.7969 113.68 58.5156C113.68 61.2344 111.469 63.4457 108.75 63.4457C106.485 63.4457 104.571 61.905 103.994 59.8207H88.2763C88.1277 63.3804 87.3628 66.8387 85.9998 70.1157L83.5928 69.1188C84.8217 66.1572 85.5141 63.0324 85.6627 59.8207H62.7527C62.6439 60.2122 62.4881 60.5928 62.2814 60.9553L91.8107 90.4809C93.6486 89.4333 96.1897 89.7342 97.7376 91.282C99.6588 93.2033 99.6588 96.3353 97.7376 98.2565C95.8127 100.174 92.6879 100.174 90.7631 98.2565C89.8314 97.3177 89.3203 96.0779 89.3203 94.762C89.3203 93.892 89.5451 93.0546 89.9656 92.3224L78.4888 80.8456C75.8679 83.249 72.8882 85.1522 69.6039 86.5152L68.6071 84.1009C71.5687 82.872 74.2693 81.1574 76.6473 78.9969L60.4436 62.7932C60.0811 62.9998 59.7004 63.1557 59.3089 63.2644V104.506C61.3969 105.079 62.9339 106.996 62.9339 109.262C62.9303 111.981 60.7191 114.192 58.0003 114.192ZM58.0003 106.942C56.7207 106.942 55.6803 107.982 55.6803 109.262C55.6803 110.542 56.7207 111.582 58.0003 111.582C59.2799 111.582 60.3203 110.542 60.3203 109.262C60.3203 107.982 59.2799 106.942 58.0003 106.942ZM94.2503 92.442C93.6304 92.442 93.0504 92.6813 92.6118 93.1235C92.1732 93.5658 91.9303 94.1422 91.9303 94.762C91.9303 95.3819 92.1696 95.9619 92.6118 96.4005C93.5108 97.3068 94.9898 97.3068 95.8888 96.4005C96.7951 95.4979 96.7951 94.0262 95.8888 93.1235C95.4502 92.6849 94.8702 92.442 94.2503 92.442ZM21.7503 92.442C21.1304 92.442 20.5468 92.6813 20.1082 93.1235C19.2019 94.0262 19.2019 95.4979 20.1082 96.4005C21.0144 97.3068 22.4826 97.3068 23.3888 96.4005C23.8274 95.9619 24.0703 95.3819 24.0703 94.762C24.0703 94.1422 23.8274 93.5622 23.3888 93.1235C22.9538 92.6849 22.3702 92.442 21.7503 92.442ZM108.75 56.192C107.471 56.192 106.43 57.2324 106.43 58.512C106.43 59.7917 107.471 60.832 108.75 60.832C110.03 60.832 111.07 59.7917 111.07 58.512C111.07 57.2324 110.03 56.192 108.75 56.192ZM7.25031 56.192C5.97069 56.192 4.93031 57.2324 4.93031 58.512C4.93031 59.7917 5.97069 60.832 7.25031 60.832C8.52994 60.832 9.57031 59.7917 9.57031 58.512C9.57031 57.2324 8.52994 56.192 7.25031 56.192ZM58.0003 56.192C57.4058 56.192 56.8113 56.4168 56.3582 56.8699C55.4519 57.7761 55.4519 59.2479 56.3582 60.1505C57.2644 61.0532 58.7326 61.0532 59.6388 60.1505C60.5451 59.2443 60.5451 57.7725 59.6388 56.8699C59.1893 56.4204 58.5948 56.192 58.0003 56.192ZM94.2503 19.942C93.6558 19.942 93.0613 20.1668 92.6118 20.6199C92.1732 21.0585 91.9303 21.6422 91.9303 22.262C91.9303 22.8819 92.1696 23.4655 92.6118 23.9042C93.4891 24.7778 95.0116 24.7778 95.8888 23.9042C96.7951 22.9979 96.7951 21.5262 95.8888 20.6235C95.4393 20.1704 94.8448 19.942 94.2503 19.942ZM21.7503 19.942C21.1558 19.942 20.5613 20.1668 20.1082 20.6199C19.2019 21.5262 19.2019 22.9979 20.1082 23.9005C20.9854 24.7742 22.5116 24.7742 23.3888 23.9005C23.8274 23.4655 24.0703 22.8819 24.0703 22.262C24.0703 21.6422 23.8274 21.0585 23.3924 20.6199C22.9393 20.1704 22.3448 19.942 21.7503 19.942ZM58.0003 5.44203C56.7207 5.44203 55.6803 6.48241 55.6803 7.76203C55.6803 9.04166 56.7207 10.082 58.0003 10.082C59.2799 10.082 60.3203 9.04166 60.3203 7.76203C60.3203 6.48241 59.2799 5.44203 58.0003 5.44203Z" fill="#0059A9"/>
</g>
<defs>
<clipPath id="clip0_2853_2388">
<rect width="116" height="116" fill="white" transform="translate(0 0.511719)"/>
</clipPath>
</defs>
</svg>
