<svg width="120" height="121" viewBox="0 0 120 121" fill="none" xmlns="http://www.w3.org/2000/svg">
<g clip-path="url(#clip0_2853_2397)">
<path d="M41.2484 58.6689L29.0459 46.4627L30.9547 44.5539L41.2484 54.8514L66.5422 29.5577L68.4547 31.4664L41.2484 58.6689ZM106.348 116.76V26.7602C106.348 26.4002 106.206 26.0589 105.955 25.8077L83.4547 3.30766C83.2034 3.05266 82.8584 2.91016 82.4984 2.91016H14.9984C14.2522 2.91016 13.6484 3.51391 13.6484 4.26016V116.76C13.6484 117.506 14.2522 118.11 14.9984 118.11H104.998C105.745 118.11 106.348 117.506 106.348 116.76ZM16.3484 5.61016H81.1484V26.7602C81.1484 27.5064 81.7522 28.1102 82.4984 28.1102H103.648V115.41H16.3484V5.61016ZM83.8484 7.51891L101.74 25.4102H83.8484V7.51891ZM89.9984 100.41H29.9984V103.114H89.9984V100.41ZM89.9984 85.4101H29.9984V88.1139H89.9984V85.4101ZM89.9984 70.4101H29.9984V73.1139H89.9984V70.4101ZM44.9984 17.9102H29.9984V20.6102H44.9984V17.9102Z" fill="#0059A9"/>
</g>
<defs>
<clipPath id="clip0_2853_2397">
<rect width="120" height="120" fill="white" transform="translate(0 0.511719)"/>
</clipPath>
</defs>
</svg>
