<svg width="121" height="121" viewBox="0 0 121 121" fill="none" xmlns="http://www.w3.org/2000/svg">
<g clip-path="url(#clip0_2853_2061)">
<path d="M4.18109 118.39C3.82859 118.39 3.48359 118.252 3.22859 117.997C2.83859 117.607 2.72609 117.014 2.93984 116.512L14.1898 90.2616C14.2573 90.1041 14.3548 89.9578 14.4786 89.8378L99.6223 4.69031C100.582 3.72656 101.865 3.19781 103.226 3.19781C104.587 3.19781 105.874 3.72656 106.837 4.69031L116.535 14.3878C118.519 16.3753 118.519 19.6078 116.535 21.5991L31.3836 106.747C31.2636 106.867 31.1211 106.964 30.9598 107.032L4.70984 118.282C4.54109 118.357 4.36109 118.39 4.18109 118.39ZM9.70109 107.59L6.75359 114.468L13.6273 111.52L9.70109 107.59ZM10.8448 104.92L16.3011 110.38L29.0811 104.902V99.6403H22.9311C22.1848 99.6403 21.5811 99.0366 21.5811 98.2903V92.1403H16.3198L10.8448 104.92ZM24.2811 96.9403H30.4311C31.1773 96.9403 31.7811 97.5441 31.7811 98.2903V102.532L97.8973 36.4153L84.8061 23.3241L18.6898 89.4403H22.9311C23.6773 89.4403 24.2811 90.0441 24.2811 90.7903V96.9403ZM86.7186 21.4153L99.8061 34.5066L103.522 30.7903L90.4311 17.6991L86.7186 21.4153ZM92.3436 15.7903L105.431 28.8816L114.622 19.6903C115.556 18.7528 115.556 17.2303 114.622 16.2966L104.925 6.59906C104.471 6.14531 103.871 5.89406 103.23 5.89406C102.589 5.89406 101.985 6.14531 101.535 6.59906L92.3436 15.7903ZM97.9311 118.39C97.5861 118.39 97.2374 118.259 96.9749 117.997L63.2248 84.2466L65.1336 82.3341L69.8023 87.0066L78.2211 78.5841L80.1336 80.4966L71.7149 88.9153L79.1811 96.3816L83.8499 91.7091L85.7623 93.6216L81.0899 98.2903L88.5561 105.757L96.9749 97.3341L98.8873 99.2466L90.4649 107.665L97.9311 115.132L114.772 98.2903L81.9749 65.4966L83.8873 63.5878L117.637 97.3378C118.166 97.8666 118.166 98.7216 117.637 99.2503L98.8873 118C98.6248 118.259 98.2761 118.39 97.9311 118.39ZM33.2586 89.8716L31.3498 87.9591L85.7249 33.5841L87.6373 35.4928L33.2586 89.8716ZM36.9786 57.9928L3.22859 24.2428C2.69984 23.7141 2.69984 22.8628 3.22859 22.3341L21.9786 3.58406C22.5073 3.05531 23.3586 3.05531 23.8873 3.58406L57.6373 37.3341L55.7286 39.2428L22.9311 6.44906L6.08984 23.2903L13.5561 30.7566L21.9786 22.3378L23.8873 24.2466L15.4648 32.6653L22.9311 40.1316L27.6036 35.4628L29.5123 37.3716L24.8398 42.0403L32.3061 49.5066L40.7286 41.0878L42.6373 42.9966L34.2148 51.4153L38.8836 56.0878L36.9786 57.9928Z" fill="#0059A9"/>
</g>
<defs>
<clipPath id="clip0_2853_2061">
<rect width="120" height="120" fill="white" transform="translate(0.429688 0.789062)"/>
</clipPath>
</defs>
</svg>
