<svg width="121" height="121" viewBox="0 0 121 121" fill="none" xmlns="http://www.w3.org/2000/svg">
<g clip-path="url(#clip0_2853_2079)">
<path d="M116.819 118.388H4.31875C3.5725 118.388 2.96875 117.784 2.96875 117.038C2.96875 116.801 3.0325 116.543 3.14875 116.336L11.7925 101.363C12.0325 100.946 12.4825 100.684 12.9625 100.684H59.2188V83.2875C59.2188 82.5413 59.8225 81.9375 60.5687 81.9375H74.0725L64.4575 65.2538C62.4625 61.7925 62.47 57.3187 64.4762 53.865C65.485 52.1325 66.9212 50.6925 68.635 49.7025C69.3175 49.3125 70.0262 48.9975 70.7575 48.7575L83.4288 26.8125C83.08 26.115 82.78 25.3913 82.5363 24.6413H57.0925C55.1312 29.055 50.7062 32.1413 45.5725 32.1413C44.7962 32.1413 44.035 32.07 43.3 31.935L36.5312 43.6462C37.1838 44.6962 37.675 45.855 37.9787 47.0925C38.7437 50.1862 38.2637 53.3812 36.6287 56.0925L31.0113 65.7488C30.64 66.3975 29.8188 66.6188 29.17 66.24L21.1863 61.6312L18.1525 66.885C19.4763 67.9688 20.4475 69.4238 20.9463 71.1075C21.6063 73.3275 21.3625 75.66 20.2675 77.6813L18.3138 81.2812C18.1412 81.5138 17.7812 81.855 17.5037 81.9375L11.6425 83.6738L10.8775 81.09L16.2212 79.5037L17.8975 76.395C18.6475 75.0113 18.8125 73.4062 18.3625 71.88C17.9088 70.3575 16.8962 69.1012 15.5087 68.3512C14.1212 67.6012 12.52 67.44 10.99 67.8863C9.46375 68.34 8.21125 69.3563 7.46125 70.7438L5.77375 73.8525L7.34875 79.1738L4.76125 79.9425L3.025 74.085C2.92375 73.74 2.96125 73.3725 3.13375 73.0575L5.0875 69.4575C6.1825 67.44 8.005 65.9588 10.2212 65.3063C12.0925 64.7438 14.0463 64.83 15.8237 65.535L18.8463 60.2962L10.75 55.6237C10.4387 55.4437 10.21 55.1437 10.12 54.7912C10.03 54.4387 10.0825 54.0675 10.2738 53.7562L16.2625 43.8187C17.8975 41.1075 20.5 39.195 23.5938 38.43C24.9737 38.0925 26.3763 37.995 27.7337 38.1413L34.7463 25.9988C33.6175 24.0938 32.9688 21.8888 32.9688 19.5375C32.9688 12.5887 38.62 6.9375 45.5687 6.9375C50.7025 6.9375 55.1275 10.0237 57.0887 14.4375H82.5325C84.6775 7.9125 90.8313 3.1875 98.0688 3.1875C107.084 3.1875 114.419 10.5225 114.419 19.5375C114.419 28.4963 107.174 35.7937 98.2412 35.8875L86.0163 57.0637L100.353 81.9375H109.319C110.065 81.9375 110.669 82.5413 110.669 83.2875V100.688H116.819C117.565 100.688 118.169 101.291 118.169 102.038V117.038C118.169 117.784 117.565 118.388 116.819 118.388ZM6.64375 115.688H115.469V103.388H13.7425L6.64375 115.688ZM61.9188 100.688H107.969V84.6375H61.9188V100.688ZM77.1888 81.9375H97.24L81.8463 55.2262C81.0888 53.9212 80.005 52.83 78.7 52.0762C76 50.5087 72.6588 50.4937 69.985 52.0425C68.68 52.7962 67.5813 53.895 66.8125 55.2188C65.305 57.8138 65.3013 61.305 66.7938 63.9038L77.1888 81.9375ZM13.2925 53.955L29.3538 63.2287L34.3075 54.7162C35.5825 52.605 35.95 50.1337 35.3612 47.7412C34.7687 45.3487 33.2913 43.3387 31.1988 42.075C29.11 40.815 26.635 40.44 24.2425 41.0325C21.85 41.625 19.8363 43.1025 18.5725 45.195L13.2925 53.955ZM74.2975 48.195C76.2812 48.195 78.2763 48.7087 80.05 49.74C81.76 50.7337 83.185 52.1625 84.1787 53.88L84.4563 54.3637L95.2638 35.6512C91.1125 34.9312 87.4938 32.6362 85.0413 29.4113L74.1963 48.195C74.2338 48.195 74.2637 48.195 74.2975 48.195ZM30.4863 38.7562C31.2138 39.0187 31.9188 39.3563 32.5938 39.765C33.37 40.2337 34.0787 40.7812 34.7162 41.3963L40.6412 31.1363C39.0812 30.4688 37.6825 29.4975 36.52 28.2975L30.4863 38.7562ZM98.0688 5.8875C90.5425 5.8875 84.4188 12.0113 84.4188 19.5375C84.4188 27.0638 90.5425 33.1875 98.0688 33.1875C105.595 33.1875 111.719 27.0638 111.719 19.5375C111.719 12.0113 105.595 5.8875 98.0688 5.8875ZM45.5687 9.6375C40.1087 9.6375 35.6687 14.0813 35.6687 19.5375C35.6687 24.9938 40.1087 29.4375 45.5687 29.4375C51.0287 29.4375 55.4688 24.9975 55.4688 19.5375C55.4688 14.0775 51.0287 9.6375 45.5687 9.6375ZM57.94 21.9375H81.895C81.7788 21.1537 81.7188 20.3512 81.7188 19.5375C81.7188 18.7238 81.7825 17.9213 81.895 17.1375H57.94C58.09 17.9138 58.1687 18.7163 58.1687 19.5375C58.1687 20.3588 58.09 21.1612 57.94 21.9375ZM47.4437 19.5375C47.4437 20.5725 46.6037 21.4125 45.5687 21.4125C44.5337 21.4125 43.6937 20.5725 43.6937 19.5375C43.6937 18.5025 44.5337 17.6625 45.5687 17.6625C46.6037 17.6625 47.4437 18.5025 47.4437 19.5375ZM98.0688 17.6625C97.0338 17.6625 96.1938 18.5025 96.1938 19.5375C96.1938 20.5725 97.0338 21.4125 98.0688 21.4125C99.1038 21.4125 99.9438 20.5725 99.9438 19.5375C99.9438 18.5025 99.1038 17.6625 98.0688 17.6625ZM73.6938 58.9125C72.6588 58.9125 71.8188 59.7525 71.8188 60.7875C71.8188 61.8225 72.6588 62.6625 73.6938 62.6625C74.7288 62.6625 75.5688 61.8225 75.5688 60.7875C75.5688 59.7525 74.7288 58.9125 73.6938 58.9125Z" fill="#0059A9"/>
</g>
<defs>
<clipPath id="clip0_2853_2079">
<rect width="120" height="120" fill="white" transform="translate(0.570312 0.789062)"/>
</clipPath>
</defs>
</svg>
