<svg width="120" height="121" viewBox="0 0 120 121" fill="none" xmlns="http://www.w3.org/2000/svg">
<g clip-path="url(#clip0_2853_2070)">
<path d="M63.7483 118.388C56.7995 118.388 51.1483 112.733 51.1483 105.788C51.1483 101.273 53.5333 97.3054 57.1108 95.0854L18.1258 13.8604L4.35203 20.7454L3.14453 18.3304L18.1445 10.8304C18.4708 10.6691 18.8458 10.6429 19.187 10.7591C19.5283 10.8754 19.8095 11.1266 19.967 11.4529L59.5445 93.9079C60.8608 93.4429 62.2783 93.1879 63.752 93.1879C68.1958 93.1879 72.107 95.4979 74.3495 98.9779L115.648 78.3304L116.856 80.7491L75.5608 101.393C76.0708 102.762 76.352 104.247 76.352 105.792C76.3483 112.737 70.697 118.388 63.7483 118.388ZM63.7483 95.8879C58.2883 95.8879 53.8483 100.328 53.8483 105.788C53.8483 111.248 58.292 115.688 63.7483 115.688C69.2083 115.688 73.6483 111.248 73.6483 105.788C73.6483 100.328 69.2083 95.8879 63.7483 95.8879ZM71.2483 88.3879C70.7533 88.3879 70.277 88.1141 70.0408 87.6416L40.0408 27.6416C39.707 26.9741 39.977 26.1641 40.6445 25.8304L63.1445 14.5804C63.8233 14.2466 64.6258 14.5166 64.9558 15.1841L75.602 36.4766L89.3945 29.5804C90.0508 29.2504 90.872 29.5129 91.2058 30.1841L109.956 67.6841C110.29 68.3516 110.02 69.1654 109.352 69.4954L71.852 88.2454C71.657 88.3429 71.4545 88.3879 71.2483 88.3879ZM54.3095 50.1416L71.852 85.2229L88.8808 76.7066L71.3383 41.6254L54.3095 50.1416ZM73.7533 40.4179L91.2958 75.5029L106.937 67.6804L89.3945 32.5954L73.7533 40.4179ZM43.0595 27.6416L53.102 47.7266L61.937 43.3091L51.8945 23.2241L43.0595 27.6416ZM54.3095 22.0166L64.352 42.1016L73.1833 37.6841L63.1408 17.5991L54.3095 22.0166Z" fill="#0059A9"/>
</g>
<defs>
<clipPath id="clip0_2853_2070">
<rect width="120" height="120" fill="white" transform="translate(0 0.789062)"/>
</clipPath>
</defs>
</svg>
