<svg width="121" height="121" viewBox="0 0 121 121" fill="none" xmlns="http://www.w3.org/2000/svg">
<g clip-path="url(#clip0_2853_2043)">
<path d="M96.4352 90.7875C96.4352 85.905 100.406 81.9375 105.285 81.9375C110.164 81.9375 114.135 85.905 114.135 90.7875C114.135 95.67 110.164 99.6375 105.285 99.6375C100.406 99.6375 96.4352 95.67 96.4352 90.7875ZM111.435 90.7875C111.435 87.3975 108.675 84.6375 105.285 84.6375C101.895 84.6375 99.1352 87.3975 99.1352 90.7875C99.1352 94.1775 101.895 96.9375 105.285 96.9375C108.675 96.9375 111.435 94.1775 111.435 90.7875ZM66.4352 90.7875C66.4352 85.905 70.4064 81.9375 75.2852 81.9375C80.1639 81.9375 84.1352 85.905 84.1352 90.7875C84.1352 95.67 80.1639 99.6375 75.2852 99.6375C70.4064 99.6375 66.4352 95.67 66.4352 90.7875ZM81.4352 90.7875C81.4352 87.3975 78.6752 84.6375 75.2852 84.6375C71.8952 84.6375 69.1352 87.3938 69.1352 90.7875C69.1352 94.1813 71.8952 96.9375 75.2852 96.9375C78.6752 96.9375 81.4352 94.1775 81.4352 90.7875ZM36.4352 90.7875C36.4352 85.905 40.4064 81.9375 45.2852 81.9375C50.1639 81.9375 54.1352 85.9088 54.1352 90.7875C54.1352 95.6663 50.1639 99.6375 45.2852 99.6375C40.4064 99.6375 36.4352 95.67 36.4352 90.7875ZM51.4352 90.7875C51.4352 87.3975 48.6789 84.6375 45.2852 84.6375C41.8914 84.6375 39.1352 87.3938 39.1352 90.7875C39.1352 94.1813 41.8914 96.9375 45.2852 96.9375C48.6789 96.9375 51.4352 94.1775 51.4352 90.7875ZM6.43515 90.7875C6.43515 85.905 10.4064 81.9375 15.2852 81.9375C20.1639 81.9375 24.1352 85.9088 24.1352 90.7875C24.1352 95.6663 20.1639 99.6375 15.2852 99.6375C10.4064 99.6375 6.43515 95.67 6.43515 90.7875ZM21.4352 90.7875C21.4352 87.3975 18.6789 84.6375 15.2852 84.6375C11.8914 84.6375 9.13516 87.3938 9.13516 90.7875C9.13516 94.1813 11.8914 96.9375 15.2852 96.9375C18.6789 96.9375 21.4352 94.1775 21.4352 90.7875ZM4.03516 74.4375V77.1413H116.535V74.4375H4.03516ZM116.535 104.438H4.03516V107.141H116.535V104.438ZM75.2852 69.6375H45.2852C44.5389 69.6375 43.9352 69.0338 43.9352 68.2875V38.2875C43.9352 37.5413 44.5389 36.9375 45.2852 36.9375H75.2852C76.0314 36.9375 76.6352 37.5413 76.6352 38.2875V68.2875C76.6352 69.0338 76.0314 69.6375 75.2852 69.6375ZM73.9352 39.6375H46.6352V66.9375H73.9352V39.6375ZM37.7852 43.3875H7.78516C7.03891 43.3875 6.43515 42.7838 6.43515 42.0375V12.0375C6.43515 11.2912 7.03891 10.6875 7.78516 10.6875H37.7852C38.5314 10.6875 39.1352 11.2912 39.1352 12.0375V42.0375C39.1352 42.7838 38.5314 43.3875 37.7852 43.3875ZM36.4352 20.0963L29.7264 13.3875H22.2977L36.4352 27.525V20.0963ZM36.4352 31.3463L18.4764 13.3875H11.0477L36.4352 38.775V31.3463ZM9.13516 33.9788L15.8439 40.6875H23.2727L9.13516 26.55V33.9788ZM9.13516 22.7287L27.0939 40.6875H34.5227L9.13516 15.3V22.7287ZM12.0264 40.6875L9.13516 37.8V40.6912L12.0264 40.6875ZM33.5439 13.3875L36.4352 16.275V13.3875H33.5439ZM112.785 69.6375H82.7852C82.0389 69.6375 81.4352 69.0338 81.4352 68.2875V38.2875C81.4352 37.5413 82.0389 36.9375 82.7852 36.9375H112.785C113.531 36.9375 114.135 37.5413 114.135 38.2875V68.2875C114.135 69.0338 113.531 69.6375 112.785 69.6375ZM111.435 39.6375H84.1352V66.9375H111.435V39.6375Z" fill="#0059A9"/>
</g>
<defs>
<clipPath id="clip0_2853_2043">
<rect width="120" height="120" fill="white" transform="matrix(-1 0 0 1 120.285 0.789062)"/>
</clipPath>
</defs>
</svg>
