<svg width="121" height="121" viewBox="0 0 121 121" fill="none" xmlns="http://www.w3.org/2000/svg">
<g clip-path="url(#clip0_2853_2097)">
<path d="M94.9453 118.837C88.7466 118.837 82.6266 116.422 78.0516 111.855C71.6878 105.487 69.4641 96.015 72.2691 87.5062L33.9928 49.2375C25.4766 52.0387 16.0153 49.8112 9.65158 43.4512C2.51158 36.315 0.63658 25.4025 4.98658 16.3012C5.17408 15.9075 5.54158 15.6262 5.97658 15.5512C6.41908 15.4837 6.85033 15.6187 7.15783 15.93L22.1653 30.9375C24.5653 33.33 28.4653 33.3337 30.8653 30.9375C33.2616 28.5375 33.2616 24.6375 30.8653 22.2375L15.8578 7.22998C15.5466 6.91873 15.4078 6.47997 15.4791 6.04873C15.5541 5.61748 15.8316 5.24998 16.2291 5.05873C25.3303 0.704976 36.2391 2.58373 43.3753 9.71997C49.7428 16.0875 51.9703 25.56 49.1578 34.0725L87.4303 72.3412C95.9466 69.5212 105.415 71.7562 111.779 78.1237C118.912 85.26 120.787 96.1687 116.44 105.274C116.249 105.667 115.882 105.949 115.447 106.02C115.042 106.102 114.58 105.952 114.265 105.645L99.2578 90.6375C96.8616 88.2412 92.9578 88.2412 90.5653 90.6375C88.1653 93.0375 88.1653 96.9375 90.5653 99.33L105.573 114.337C105.88 114.649 106.023 115.087 105.948 115.519C105.873 115.95 105.595 116.321 105.202 116.512C101.932 118.076 98.4291 118.837 94.9453 118.837ZM34.3453 46.335C34.6978 46.335 35.0428 46.4737 35.2978 46.7287L74.7778 86.1937C75.1528 86.5687 75.2728 87.1237 75.0891 87.6187C72.2203 95.3512 74.1328 104.115 79.9641 109.942C85.8291 115.807 94.5741 117.667 102.247 114.836L88.6566 101.246C85.2103 97.7962 85.2103 92.1825 88.6566 88.7287C92.1216 85.2862 97.7316 85.29 101.174 88.7287L114.764 102.319C117.595 94.6425 115.739 85.9012 109.87 80.0362C104.043 74.205 95.2866 72.2925 87.5466 75.1612C87.0516 75.3412 86.5003 75.225 86.1216 74.85L46.6528 35.3812C46.2778 35.01 46.1578 34.4512 46.3416 33.9562C49.2141 26.2237 47.2978 17.46 41.4703 11.6287C35.6053 5.76373 26.8603 3.90373 19.1841 6.73873L32.7741 20.3287C34.4391 21.9937 35.3541 24.2175 35.3541 26.5875C35.3541 28.9575 34.4353 31.1812 32.7703 32.8425C29.4403 36.1762 23.5828 36.1725 20.2566 32.8425L6.66658 19.2562C3.83533 26.9287 5.69158 35.6737 11.5566 41.5425C17.3841 47.37 26.1516 49.2825 33.8766 46.4175C34.0303 46.3612 34.1878 46.335 34.3453 46.335ZM11.4328 117.937C11.0878 117.937 10.7391 117.802 10.4803 117.544L3.94408 111.007C3.43408 110.497 3.41533 109.68 3.89908 109.144L14.9091 97.035C15.1566 96.7612 15.5053 96.6037 15.8766 96.5925C16.1653 96.5925 16.6003 96.7275 16.8628 96.9862L19.7278 99.8512L47.7628 71.8125L49.6716 73.725L21.6366 101.764L24.4978 104.625C24.7603 104.887 24.9028 105.244 24.8916 105.615C24.8803 105.986 24.7228 106.331 24.4491 106.582L12.3403 117.592C12.0853 117.821 11.7591 117.937 11.4328 117.937ZM6.76408 110.006L11.4778 114.724L21.5841 105.532L15.9516 99.9L6.76408 110.006ZM80.8191 55.23L78.9066 53.3212L113.823 18.405C115.263 16.9687 116.054 15.06 116.054 13.0312C116.054 11.0025 115.263 9.09372 113.823 7.65747C110.868 4.70248 106.045 4.69498 103.083 7.65747L68.1666 42.5737L66.2541 40.665L101.17 5.74872C105.063 1.85623 111.85 1.86373 115.735 5.74872C117.682 7.69497 118.754 10.2787 118.754 13.0312C118.754 15.7837 117.682 18.3675 115.735 20.3137L80.8191 55.23ZM74.4928 48.9037L72.5803 46.995L107.388 12.1875L109.3 14.0962L74.4928 48.9037Z" fill="#0059A9"/>
</g>
<defs>
<clipPath id="clip0_2853_2097">
<rect width="120" height="120" fill="white" transform="translate(0.714844 0.789062)"/>
</clipPath>
</defs>
</svg>
