<svg width="121" height="121" viewBox="0 0 121 121" fill="none" xmlns="http://www.w3.org/2000/svg">
<g clip-path="url(#clip0_2853_2052)">
<path d="M103.98 19.5391C103.98 20.5741 103.14 21.4141 102.105 21.4141C101.074 21.4141 100.23 20.5741 100.23 19.5391C100.23 18.5041 101.074 17.6641 102.105 17.6641C103.14 17.6641 103.98 18.5041 103.98 19.5391ZM109.605 10.1641C108.574 10.1641 107.73 11.0041 107.73 12.0391C107.73 13.0741 108.574 13.9141 109.605 13.9141C110.64 13.9141 111.48 13.0741 111.48 12.0391C111.48 11.0041 110.64 10.1641 109.605 10.1641ZM94.6055 25.1641C93.5742 25.1641 92.7305 26.0041 92.7305 27.0391C92.7305 28.0741 93.5742 28.9141 94.6055 28.9141C95.6405 28.9141 96.4805 28.0741 96.4805 27.0391C96.4805 26.0041 95.6405 25.1641 94.6055 25.1641ZM27.1055 92.6641C26.0742 92.6641 25.2305 93.5041 25.2305 94.5391C25.2305 95.5741 26.0742 96.4141 27.1055 96.4141C28.1405 96.4141 28.9805 95.5741 28.9805 94.5391C28.9805 93.5041 28.1405 92.6641 27.1055 92.6641ZM19.6055 100.164C18.5742 100.164 17.7305 101.004 17.7305 102.039C17.7305 103.074 18.5742 103.914 19.6055 103.914C20.6405 103.914 21.4805 103.074 21.4805 102.039C21.4805 101.004 20.6405 100.164 19.6055 100.164ZM12.1055 107.664C11.0742 107.664 10.2305 108.504 10.2305 109.539C10.2305 110.574 11.0742 111.414 12.1055 111.414C13.1405 111.414 13.9805 110.574 13.9805 109.539C13.9805 108.504 13.1405 107.664 12.1055 107.664ZM110.562 108.583L89.2617 87.2866C96.008 80.0678 99.7055 70.7116 99.7055 60.7891C99.7055 39.3691 82.2792 21.9391 60.8555 21.9391C39.4355 21.9391 22.0055 39.3691 22.0055 60.7891C22.0055 82.2128 39.4317 99.6391 60.8555 99.6391C70.778 99.6391 80.138 95.9416 87.353 89.1953L108.649 110.495L110.562 108.583ZM97.0055 60.7891C97.0055 70.4416 93.2442 79.5166 86.4155 86.3453C79.5867 93.1741 70.508 96.9391 60.8555 96.9391C40.9242 96.9391 24.7055 80.7241 24.7055 60.7891C24.7055 40.8541 40.9242 24.6391 60.8555 24.6391C80.7867 24.6391 97.0055 40.8578 97.0055 60.7891ZM50.9555 79.5391V72.0391C50.9555 71.2928 50.3517 70.6891 49.6055 70.6891H42.1055C41.3592 70.6891 40.7555 71.2928 40.7555 72.0391V79.5391C40.7555 80.2853 41.3592 80.8891 42.1055 80.8891H49.6055C50.3517 80.8891 50.9555 80.2853 50.9555 79.5391ZM43.4555 73.3891H48.2555V78.1853H43.4555V73.3891ZM65.9555 64.5391V57.0391C65.9555 56.2928 65.3517 55.6891 64.6055 55.6891H57.1055C56.3592 55.6891 55.7555 56.2928 55.7555 57.0391V64.5391C55.7555 65.2853 56.3592 65.8891 57.1055 65.8891H64.6055C65.3517 65.8891 65.9555 65.2853 65.9555 64.5391ZM58.4555 58.3891H63.2555V63.1891H58.4555V58.3891ZM80.9555 49.5391V42.0391C80.9555 41.2928 80.3517 40.6891 79.6055 40.6891H72.1055C71.3592 40.6891 70.7555 41.2928 70.7555 42.0391V49.5391C70.7555 50.2853 71.3592 50.8891 72.1055 50.8891H79.6055C80.3517 50.8891 80.9555 50.2853 80.9555 49.5391ZM73.4555 43.3891H78.2517V48.1891H73.4555V43.3891Z" fill="#0059A9"/>
</g>
<defs>
<clipPath id="clip0_2853_2052">
<rect width="120" height="120" fill="white" transform="translate(0.855469 0.789062)"/>
</clipPath>
</defs>
</svg>
