<svg width="121" height="121" viewBox="0 0 121 121" fill="none" xmlns="http://www.w3.org/2000/svg">
<g clip-path="url(#clip0_2853_2088)">
<path d="M22.8141 120.731C29.3053 120.731 34.6678 115.796 35.3428 109.481H81.5353C82.2103 115.796 87.5728 120.731 94.0641 120.731C100.555 120.731 105.918 115.796 106.593 109.481H109.064C113.943 109.481 117.914 105.51 117.914 100.631V74.3812C117.914 74.1262 117.843 73.89 117.723 73.6875L102.577 47.4562C102.337 47.04 101.89 46.7812 101.407 46.7812H72.9103V29.3812C72.9103 28.635 72.3066 28.0312 71.5603 28.0312H4.0603C3.31406 28.0312 2.7103 28.635 2.7103 29.3812V108.131C2.7103 108.878 3.31406 109.481 4.0603 109.481H10.2816C10.9603 115.796 16.3228 120.731 22.8141 120.731ZM22.8141 98.2313C28.2741 98.2313 32.7141 102.671 32.7141 108.131C32.7141 113.591 28.2741 118.031 22.8141 118.031C17.3541 118.031 12.9141 113.591 12.9141 108.131C12.9141 102.671 17.3541 98.2313 22.8141 98.2313ZM94.0641 98.2313C99.5241 98.2313 103.964 102.671 103.964 108.131C103.964 113.591 99.5241 118.031 94.0641 118.031C88.6041 118.031 84.1641 113.591 84.1641 108.131C84.1641 102.671 88.6041 98.2313 94.0641 98.2313ZM10.2853 106.781H5.41405V30.7313H70.2141V106.781H35.3428C34.6678 100.466 29.3091 95.5312 22.8141 95.5312C16.3191 95.5312 10.9603 100.466 10.2853 106.781ZM81.5353 106.781H72.9141V75.7313H115.214V100.631C115.214 104.021 112.454 106.781 109.064 106.781H106.593C105.918 100.466 100.555 95.5312 94.0641 95.5312C87.5728 95.5312 82.2103 100.466 81.5353 106.781ZM81.4641 73.0312H72.9141V49.4812H81.4641V73.0312ZM114.224 73.0312H84.1641V49.4812H100.627L114.224 73.0312ZM79.0641 83.2313H86.5641V80.5312H79.0641V83.2313ZM11.5641 75.7313H41.5641V73.0312H11.5641V75.7313ZM11.5641 64.4812H49.0641V61.7812H11.5641V64.4812ZM11.5641 53.2312H56.5641V50.5312H11.5641V53.2312ZM11.5641 41.9812H64.0641V39.2812H11.5641V41.9812Z" fill="#0059A9"/>
</g>
<defs>
<clipPath id="clip0_2853_2088">
<rect width="120" height="120" fill="white" transform="matrix(-1 0 0 1 120.141 0.789062)"/>
</clipPath>
</defs>
</svg>
