<svg width="241" height="241" viewBox="0 0 241 241" fill="none" xmlns="http://www.w3.org/2000/svg">
<g clip-path="url(#clip0_2853_2121)">
<path d="M183.369 233.29H177.969V177.1C177.969 150.43 159.864 127.51 133.929 121.36C132.804 121.09 131.971 120.138 131.866 118.99C131.754 117.835 132.399 116.74 133.456 116.268C144.834 111.205 152.176 99.9102 152.176 87.4977C152.176 70.1277 138.046 55.9902 120.676 55.9902C103.306 55.9902 89.1762 70.1202 89.1762 87.4977C89.1762 99.9177 96.5262 111.213 107.896 116.268C108.954 116.74 109.591 117.835 109.486 118.99C109.381 120.138 108.549 121.098 107.424 121.36C81.4887 127.503 63.3838 150.423 63.3838 177.1V233.29H57.9838V177.1C57.9838 150.123 74.9037 126.663 99.8712 117.948C89.9187 111.145 83.7687 99.7902 83.7687 87.4977C83.7687 72.7677 92.4462 60.0177 104.956 54.1077C106.426 50.4177 107.169 46.5177 107.169 42.4977C107.169 25.1277 93.0387 10.9902 75.6687 10.9902C58.2987 10.9902 44.1612 25.1202 44.1612 42.4977C44.1612 54.9102 51.5112 66.2127 62.8813 71.2677C63.9463 71.7402 64.5838 72.8352 64.4713 73.9902C64.3662 75.1377 63.5338 76.0977 62.4088 76.3602C36.4738 82.5102 18.3687 105.4 18.3687 132.04V188.29H12.9688V132.04C12.9688 105.1 29.8962 81.6552 54.8563 72.9477C44.9113 66.1452 38.7688 54.7902 38.7688 42.4977C38.7688 22.1502 55.3212 5.59766 75.6687 5.59766C96.0163 5.59766 112.569 22.1502 112.569 42.4977C112.569 45.6627 112.179 48.7677 111.391 51.7752C117.324 50.2377 124.014 50.2377 129.939 51.7752C129.159 48.7677 128.761 45.6627 128.761 42.4977C128.761 22.1502 145.321 5.59766 165.669 5.59766C186.016 5.59766 202.576 22.1502 202.576 42.4977C202.576 54.7977 196.426 66.1527 186.481 72.9552C211.449 81.6627 228.376 105.108 228.376 132.048V188.29H222.969V132.04C222.969 105.4 204.864 82.5102 178.929 76.3602C177.804 76.0902 176.971 75.1377 176.866 73.9902C176.754 72.8352 177.399 71.7402 178.456 71.2677C189.826 66.2052 197.169 54.9102 197.169 42.4977C197.169 25.1277 183.039 10.9902 165.669 10.9902C148.299 10.9902 134.169 25.1202 134.169 42.4977C134.169 46.5177 134.911 50.4177 136.381 54.1077C148.899 60.0252 157.576 72.7677 157.576 87.4977C157.576 99.7977 151.426 111.153 141.481 117.955C166.449 126.67 183.376 150.13 183.376 177.108L183.369 233.29ZM145.081 182.703L141.256 178.878L113.169 206.973L100.074 193.878L96.2562 197.703L113.169 214.608L145.081 182.703Z" fill="#0059A9"/>
</g>
<defs>
<clipPath id="clip0_2853_2121">
<rect width="240" height="240" fill="white" transform="translate(0.667969 0.789062)"/>
</clipPath>
</defs>
</svg>
