<svg width="242" height="241" viewBox="0 0 242 241" fill="none" xmlns="http://www.w3.org/2000/svg">
<g clip-path="url(#clip0_2853_2136)">
<path d="M183.962 233.29H178.539V177.1C178.539 150.43 160.359 127.51 134.316 121.36C133.186 121.09 132.35 120.137 132.244 118.99C132.132 117.835 132.779 116.74 133.841 116.267C145.266 111.205 152.639 99.9098 152.639 87.4973C152.639 70.1273 138.45 55.9898 121.008 55.9898C103.565 55.9898 89.3691 70.1198 89.3691 87.4973C89.3691 99.9098 96.7497 111.212 108.167 116.267C109.229 116.74 109.877 117.835 109.764 118.99C109.658 120.137 108.822 121.097 107.693 121.36C81.6495 127.51 63.4691 150.43 63.4691 177.1V233.29H58.0391V177.1C58.0391 150.122 75.0371 126.662 100.101 117.947C90.1147 111.145 83.939 99.7898 83.939 87.4898C83.939 72.7598 92.6527 60.0098 105.222 54.0998C106.698 50.4173 107.444 46.5173 107.444 42.4973C107.444 25.1273 93.2552 10.9898 75.8128 10.9898C58.0767 10.9898 44.174 24.6323 44.174 42.0398C44.174 54.5348 51.7279 66.2798 62.972 71.2673C64.0415 71.7398 64.6816 72.8348 64.5687 73.9898C64.4632 75.1373 63.6273 76.0973 62.4976 76.3598C36.4545 82.5098 18.2741 105.4 18.2741 132.04V188.29H12.8516V132.04C12.8516 105.085 29.8647 81.6323 54.9588 72.9323C45.0627 66.0773 38.7591 54.3698 38.7591 42.0398C38.7591 21.9398 55.3805 5.58984 75.8128 5.58984C96.2451 5.58984 112.867 22.1423 112.867 42.4898C112.867 45.6548 112.475 48.7598 111.684 51.7673C117.641 50.2298 124.359 50.2298 130.309 51.7673C129.526 48.7598 129.127 45.6548 129.127 42.4898C129.127 22.1423 145.756 5.58984 166.188 5.58984C186.718 5.58984 202.79 21.6023 202.79 42.0398C202.79 54.6398 196.772 66.1523 187.027 72.9323C212.128 81.6248 229.149 105.085 229.149 132.04V188.29H223.727V132.04C223.727 105.4 205.546 82.5098 179.503 76.3598C178.373 76.0898 177.537 75.1373 177.432 73.9898C177.319 72.8348 177.967 71.7398 179.029 71.2673C190.167 66.3248 197.367 54.8498 197.367 42.0398C197.367 24.6323 183.675 10.9898 166.188 10.9898C148.745 10.9898 134.557 25.1198 134.557 42.4973C134.557 46.5173 135.302 50.4173 136.778 54.1073C149.348 60.0248 158.062 72.7673 158.062 87.4973C158.062 99.7973 151.886 111.152 141.9 117.955C166.971 126.67 183.969 150.13 183.969 177.107L183.962 233.29ZM124.766 210.79C124.766 208.72 123.079 207.04 121 207.04C118.922 207.04 117.235 208.72 117.235 210.79C117.235 212.86 118.922 214.54 121 214.54C123.079 214.54 124.766 212.86 124.766 210.79ZM130.347 186.88C134.097 184.097 138.774 180.632 138.774 171.925C138.774 162.46 131.303 155.59 121 155.59C111.195 155.59 103.227 163.555 103.227 173.357H108.649C108.649 166.54 114.192 160.997 121.008 160.997C128.275 160.997 133.352 165.49 133.352 171.925C133.352 177.925 130.731 179.867 127.108 182.552C123.162 185.477 118.259 189.115 118.259 198.692H123.681C123.674 191.822 126.619 189.64 130.347 186.88Z" fill="#0059A9"/>
</g>
<defs>
<clipPath id="clip0_2853_2136">
<rect width="241" height="240" fill="white" transform="translate(0.5 0.789062)"/>
</clipPath>
</defs>
</svg>
