<svg width="242" height="241" viewBox="0 0 242 241" fill="none" xmlns="http://www.w3.org/2000/svg">
<g clip-path="url(#clip0_2853_2149)">
<path d="M184.298 233.29H178.875V177.04C178.875 150.4 160.695 127.51 134.652 121.36C133.522 121.09 132.686 120.137 132.58 118.99C132.467 117.835 133.115 116.74 134.177 116.267C145.602 111.205 152.975 99.9098 152.975 87.4973C152.975 70.1273 138.786 55.9898 121.344 55.9898C103.901 55.9898 89.7125 70.1198 89.7125 87.4973C89.7125 99.9173 97.0932 111.212 108.511 116.267C109.572 116.74 110.213 117.835 110.107 118.99C110.002 120.137 109.166 121.097 108.036 121.36C81.993 127.51 63.805 150.4 63.805 177.04V233.29H58.375V177.04C58.375 150.1 75.373 126.655 100.445 117.947C90.4581 111.145 84.2825 99.7898 84.2825 87.4973C84.2825 72.7673 92.9962 60.0248 105.551 54.1073C106.974 50.4848 107.78 46.1498 107.78 42.0398C107.78 24.6323 93.8848 10.9898 76.1488 10.9898C58.4127 10.9898 44.51 24.6323 44.51 42.0398C44.51 54.5348 52.0638 66.2798 63.308 71.2673C64.3774 71.7398 65.0176 72.8348 64.9046 73.9898C64.7992 75.1373 63.9632 76.0973 62.8335 76.3598C36.7904 82.5098 18.61 105.4 18.61 132.04V188.29H13.1875V132.04C13.1875 105.085 30.2006 81.6323 55.2947 72.9323C45.3987 66.0773 39.095 54.3698 39.095 42.0398C39.095 21.9398 55.7165 5.58984 76.1488 5.58984C96.581 5.58984 113.203 21.9398 113.203 42.0398C113.203 45.3173 112.781 48.6473 111.982 51.7823C117.962 50.2298 124.703 50.2298 130.69 51.7823C129.892 48.6398 129.462 45.3173 129.462 42.0398C129.462 21.9398 146.091 5.58984 166.524 5.58984C186.956 5.58984 203.585 21.9398 203.585 42.0398C203.585 54.3698 197.266 66.0773 187.378 72.9323C212.472 81.6323 229.493 105.085 229.493 132.04V188.29H224.063V132.04C224.063 105.4 205.882 82.5098 179.839 76.3598C178.709 76.0898 177.873 75.1373 177.768 73.9898C177.655 72.8348 178.303 71.7398 179.365 71.2673C190.601 66.2798 198.155 54.5348 198.155 42.0398C198.155 24.6323 184.26 10.9898 166.524 10.9898C148.788 10.9898 134.893 24.6323 134.893 42.0398C134.893 46.1423 135.691 50.4773 137.122 54.1073C149.684 60.0248 158.398 72.7598 158.398 87.4973C158.398 99.7973 152.222 111.152 142.235 117.955C167.307 126.662 184.305 150.107 184.305 177.047L184.298 233.29ZM143.373 220.99C142.815 220.99 142.258 220.817 141.784 220.472L121.336 205.712L100.896 220.472C99.9475 221.162 98.6597 221.162 97.7107 220.472C96.7618 219.782 96.3626 218.567 96.7317 217.457L104.542 193.562L84.1018 178.765C83.1528 178.075 82.7537 176.86 83.1152 175.75C83.4767 174.64 84.5235 173.882 85.6908 173.882H110.958L118.768 149.957C119.122 148.84 120.161 148.09 121.336 148.09C122.511 148.09 123.55 148.847 123.912 149.957L131.722 173.882H156.989C158.164 173.882 159.203 174.64 159.572 175.75C159.934 176.86 159.535 178.082 158.586 178.765L138.138 193.562L145.948 217.457C146.31 218.567 145.911 219.79 144.962 220.472C144.487 220.817 143.93 220.99 143.373 220.99ZM121.336 199.682C121.894 199.682 122.451 199.855 122.925 200.2L138.214 211.232L132.377 193.367C132.016 192.257 132.415 191.035 133.364 190.352L148.652 179.29H129.749C128.574 179.29 127.534 178.532 127.173 177.422L121.336 159.527L115.5 177.422C115.138 178.532 114.091 179.29 112.924 179.29H94.0279L109.316 190.352C110.265 191.042 110.664 192.257 110.303 193.367L104.466 211.232L119.747 200.2C120.222 199.855 120.779 199.682 121.336 199.682Z" fill="#0059A9"/>
</g>
<defs>
<clipPath id="clip0_2853_2149">
<rect width="241" height="240" fill="white" transform="translate(0.835938 0.789062)"/>
</clipPath>
</defs>
</svg>
